<svg xmlns="http://www.w3.org/2000/svg" version="1.1" xmlns:xlink="http://www.w3.org/1999/xlink" width="1500" height="167" viewBox="0 0 1500 167"><svg xml:space="preserve" width="1500" height="167" data-version="2" data-id="lg_yEdmNUPIgRzQ2NtqxZ" viewBox="0 0 562 167" x="0" y="0"><rect width="100%" height="100%" fill="transparent"></rect><path fill="#ffdbe7" d="M52.275 39.48h48.68v47.2h-20.07l-2.39-20.18q-3.42 10.83-12.2 16.08-8.78 5.24-21.43 5.24-11.52 0-20.46-5.13-8.95-5.13-14.03-14.71-5.07-9.57-5.07-22.34 0-20.41 12.2-32.26 12.2-11.86 37.96-11.86 14.71 0 25.93 4.79 11.23 4.79 19.1 14.82-5.13 2.62-20.06 10.49l-2.85 1.59q-4.45-4.44-10.38-6.67-5.93-2.22-12.54-2.22-10.94 0-16.3 5.76-5.36 5.76-5.36 14.19 0 9.12 5.76 14.71 5.76 5.58 17.61 5.58 5.13 0 9.98-1.48 4.84-1.48 8.15-5.13h-22.23Z"></path><rect width="95.65" height="86.3" x="-47.83" y="-43.15" fill="none" rx="0" ry="0" transform="translate(53.63 45.17)"></rect><path fill="#ffdbe7" d="M177.555 3.8h28.28v45.37q-.23 16.76-11.46 27.71-11.23 10.94-37.79 10.94-26.91 0-36.82-10.43-9.92-10.43-9.69-27.42V3.8h28.27v44.35q0 5.01.74 8.15.74 3.13 4.79 5.87 4.04 2.74 13.05 2.74 9.8 0 14.36-2.8 4.56-2.79 5.42-6.21.85-3.42.85-8.78Z"></path><rect width="95.82" height="84.02" x="-47.91" y="-42.01" fill="none" rx="0" ry="0" transform="translate(158.43 46.31)"></rect><path fill="#ffdbe7" d="M242.765 63.65q33.06-.23 54.72-1.14-1.48 5.82-1.82 11.17-.34 5.36-.34 13h-80.37q.91-22.12.91-41.38 0-19.27-.91-41.38h27.81Z"></path><rect width="82.53" height="82.76" x="-41.27" y="-41.38" fill="none" rx="0" ry="0" transform="translate(256.72 45.8)"></rect><path fill="#ffdbe7" d="M378.545 86.68q-2.17-6.5-5.82-16.3h-36.36l-5.7 16.3h-28.62l31.92-82.76h41.95l32.15 82.76Zm-12.32-34.09q-4.33-11.97-8.89-23.94l-2.73-7.41q-3.99 10.38-11.75 31.35Z"></path><rect width="106.02" height="82.76" x="-53.01" y="-41.38" fill="none" rx="0" ry="0" transform="translate(355.56 45.8)"></rect><path fill="#ffdbe7" d="M480.345 26.6q-13.57-.68-20.07-.8v38.99q6.62-.11 20.07-.8v22.69h-66.24V63.99q13.11.69 19.95.8V25.8q-6.84.12-19.95.8V3.92h66.24Z"></path><rect width="66.24" height="82.76" x="-33.12" y="-41.38" fill="none" rx="0" ry="0" transform="translate(447.73 45.8)"></rect><path fill="#ffdbe7" d="M555.695 26.6q-13.56-.68-20.06-.8v38.99q6.61-.11 20.06-.8v22.69h-66.23V63.99q13.11.69 19.95.8V25.8q-6.84.12-19.95.8V3.92h66.23Z"></path><rect width="66.23" height="82.76" x="-33.12" y="-41.38" fill="none" rx="0" ry="0" transform="translate(523.08 45.8)"></rect><path fill="#ffdbe7" d="M237.325 155.24q-1.85 0-3.38-.55-1.54-.55-2.46-1.73-.91-1.18-.91-3.05 0-1.55.6-2.68.61-1.13 1.63-1.96 1.03-.83 2.32-1.45 1.29-.61 2.63-1.1 1.68-.65 2.93-1.27 1.25-.63 1.94-1.4.68-.77.68-1.88 0-1.06-.66-1.72-.67-.66-2.37-.66-1.58 0-3.09.43-1.52.44-2.77 1.01l-.89-2.6q1.34-.5 3.11-1.02 1.77-.52 3.98-.52 1.77 0 3.12.51t2.11 1.58q.76 1.07.76 2.79 0 1.37-.55 2.41-.54 1.03-1.49 1.82t-2.15 1.39q-1.2.59-2.53 1.08-1.89.72-3.24 1.36-1.35.63-2.07 1.47-.72.84-.72 2.15 0 1.33.96 2.11.97.78 2.98.78 1.12 0 2.16-.22 1.05-.23 2.05-.61 1.01-.38 1.95-.83v2.87q-1.37.63-2.97 1.06-1.6.43-3.66.43"></path><rect width="16.03" height="22.15" x="-8.02" y="-11.07" fill="none" rx="0" ry="0" transform="translate(239.09 144.66)"></rect><path fill="#ffdbe7" d="M246.645 164.48q-.96 0-1.55-.12-.6-.12-1.16-.29v-2.64q.52.14 1.17.24.64.11 1.37.11 1.6 0 2.75-1.01 1.15-1.02 2.25-2.99l1.5-2.68-3.28-21.66h3.28l1.48 11q.2 1.29.32 2.76.11 1.48.17 2.79.06 1.32.06 2.14h.12q.27-.64.82-1.86.54-1.22 1.17-2.55.62-1.33 1.11-2.23l6.43-12.05h3.48l-13.72 25.12q-1.05 1.95-2.15 3.27-1.11 1.32-2.46 1.98-1.34.67-3.16.67"></path><rect width="24.2" height="31.04" x="-12.1" y="-15.52" fill="none" rx="0" ry="0" transform="translate(256.54 149.46)"></rect><path fill="#ffdbe7" d="M266.025 155.1q-.49 0-.92-.09-.43-.08-.67-.16v-2.81q.28.11.6.17.32.06.69.06.98 0 1.74-.47t1.42-1.48q.65-1.02 1.31-2.66.65-1.64 1.43-3.98.92-2.68 1.77-4.65.85-1.98 1.91-3.25 1.07-1.28 2.6-1.91 1.53-.62 3.82-.62 1.31 0 2.52.17 1.21.18 2.23.45l-4.5 20.98h-3.28l4.06-18.69q-.27-.06-.67-.11t-.87-.05q-1.7 0-2.76.77-1.07.77-1.94 2.68-.87 1.9-2.04 5.32-.88 2.56-1.69 4.49-.81 1.94-1.72 3.23-.9 1.3-2.12 1.96-1.22.65-2.92.65"></path><rect width="22.04" height="21.85" x="-11.02" y="-10.93" fill="none" rx="0" ry="0" transform="translate(275.95 144.68)"></rect><path fill="#ffdbe7" d="M288.425 155.06q-.49 0-.89-.07-.4-.06-.65-.14v-2.6q.21.06.46.09.26.03.51.03.7 0 1.22-.31.52-.3 1.01-1.02t1.09-1.99q.43-.92.94-1.69.51-.77 1.2-1.36.69-.59 1.65-.92-1.35-.37-2.19-1.1-.84-.73-1.24-1.72t-.4-2.1q0-1.5.56-2.73t1.62-2.13q1.07-.9 2.63-1.38 1.56-.48 3.55-.48h8.05l-4.51 21.41h-3.23l1.86-8.58h-2.66q-1.36 0-2.2.42-.84.42-1.44 1.27-.59.85-1.24 2.16-.74 1.54-1.46 2.66-.73 1.11-1.7 1.7-.98.58-2.54.58m10.23-11.58h3.58l1.54-7.25h-4.77q-1.42 0-2.47.45-1.04.45-1.61 1.33-.56.88-.56 2.15 0 1.86 1.23 2.59 1.23.73 3.06.73"></path><rect width="20.66" height="21.62" x="-10.33" y="-10.81" fill="none" rx="0" ry="0" transform="translate(297.71 144.75)"></rect><path fill="#ffdbe7" d="M316.395 155.24q-1.62 0-2.84-.61-1.21-.6-1.86-1.78-.65-1.19-.65-2.9 0-.86.12-1.67.13-.82.29-1.69l2.83-13.15h3.28l-2.91 13.52q-.16.84-.25 1.49-.08.66-.08 1.16 0 1.39.71 2.16.71.77 2.27.77 1.47 0 3.08-.99 1.61-1 2.99-3.14 1.38-2.14 2.1-5.55l1.99-9.42h3.2l-4.53 21.41h-2.67l.52-4.14h-.17q-.74 1.01-1.8 2.06-1.05 1.04-2.44 1.76-1.39.71-3.18.71m6.72-24.63q-2.17 0-3.53-.59-1.36-.58-1.99-1.66-.64-1.07-.64-2.5 0-.33.05-.71.05-.38.11-.58h2.85q-.06.32-.09.58-.03.26-.03.54 0 1.19.79 1.88.8.7 2.65.7 1.92 0 3.15-.79 1.23-.78 1.64-2.91h3.1q-.37 1.86-1.33 3.22-.95 1.35-2.6 2.09-1.65.73-4.13.73"></path><rect width="20.13" height="30.67" x="-10.06" y="-15.34" fill="none" rx="0" ry="0" transform="translate(321.61 140.4)"></rect></svg></svg>